<?xml version="1.0" encoding="UTF-8"?> <svg xmlns="http://www.w3.org/2000/svg" version="1.1" id="Layer_1" x="0" y="0" viewBox="0 0 71.6 18.73" xml:space="preserve"><style>.st0,.st1{fill:#939598}.st1{fill-rule:evenodd;clip-rule:evenodd}</style><path class="st0" d="M17.79 18.68c-1.25-.18-2.34-.71-3.17-1.54-.7-.69-1.15-1.45-1.48-2.48-.52-1.62-.52-3.7 0-5.29.5-1.54 1.63-2.88 3.02-3.57 1.92-.96 4.62-.9 6.39.14 1.6.94 2.57 2.61 2.84 4.9.08.7.03 2.17-.1 2.78-.53 2.49-2.07 4.23-4.34 4.88-.24.07-.62.15-.84.18-.46.07-1.87.06-2.32 0zm2.7-.19c.91-.21 1.64-.54 2.29-1.02 1.58-1.18 2.45-3 2.53-5.29.08-2.26-.6-4.19-1.92-5.43-1.07-1.01-2.42-1.49-4.16-1.49-1.85 0-3.34.57-4.48 1.73-1.23 1.23-1.88 2.96-1.88 4.98 0 2.1.59 3.79 1.72 4.97a5.13 5.13 0 002.11 1.36c.31.11.54.16 1.36.32.07.01.55.02 1.06.01.7-.04 1.04-.07 1.37-.14zm-1.95-.73c-.85-.38-1.45-1.55-1.75-3.39-.19-1.17-.21-3.77-.03-5.04.24-1.79.76-2.85 1.56-3.2.55-.24 1.31-.1 1.8.34 1.09.98 1.64 3.78 1.4 7.12-.17 2.4-.69 3.7-1.66 4.16-.36.15-.98.16-1.32.01zm1.12-.08c.36-.11.81-.53 1.05-.99.5-.95.72-2.35.72-4.57.01-2.79-.43-4.56-1.35-5.49-.39-.39-.66-.51-1.16-.51-1.1 0-1.8 1.15-2.07 3.41-.13 1.04-.13 3.51 0 4.42.39 2.81 1.4 4.15 2.81 3.73zm20.24 1c-.51-.05-2.07-.31-2.62-.44l-.38-.09.03-2.01c.07-4.85.08-7.5.03-10.07-.04-2.52-.06-2.79-.16-3.16-.12-.47-.3-.8-.51-.95-.08-.06-.31-.14-.5-.19-.64-.14-.61-.12-.62-.41-.01-.17.01-.28.05-.31C35.28 1 40.54 0 40.7 0c.05 0 .05.67.03 2.99-.02 1.64-.02 2.99 0 2.99.01 0 .21-.08.43-.18.66-.31 1.27-.44 2.16-.47.59-.02.86-.01 1.17.06 1.98.41 3.45 2.03 3.96 4.38.13.61.18 2.14.09 2.9-.08.65-.29 1.53-.52 2.1-.85 2.15-2.67 3.55-5.08 3.91-.55.06-2.3.08-3.04 0zm2.9-.12c1.56-.23 2.71-.77 3.68-1.72 1.4-1.38 2.08-3.32 1.99-5.71-.05-1.23-.25-2.04-.76-3.04-.69-1.35-1.88-2.3-3.22-2.58-1.01-.21-2.31-.05-3.29.42-.25.12-.48.21-.52.21-.07 0-.07-.38-.06-3l.02-3-.21.04c-.11.02-1.27.24-2.57.48-1.3.24-2.42.45-2.48.46-.09.02-.11.06-.1.22.01.18.03.2.22.24.65.14.77.19 1.01.45.3.31.43.7.52 1.52.07.65.09 11.88.02 13.54l-.04.98.53.11c2.01.42 4.01.56 5.26.38zm-1.83-.79c-.1-.01-.22-.05-.25-.09-.09-.11-.18-7.09-.12-9.14l.05-1.62.41-.12c.61-.18 1.26-.15 1.73.07.93.44 1.54 1.53 1.86 3.32.1.58.09 2.6-.03 3.32-.24 1.5-.67 2.66-1.27 3.41-.29.36-.77.71-1.15.82-.25.07-.77.08-1.23.03zm.99-.11c.37-.07.66-.22.98-.5.78-.7 1.37-2.15 1.6-3.95.09-.73.08-2.4-.02-3.01-.28-1.65-.89-2.74-1.77-3.18-.37-.18-.42-.19-.86-.19-.31 0-.58.03-.81.1l-.34.1-.03 1.87c-.03 2.41.05 8.44.11 8.62.04.11.09.13.3.15.49.04.57.04.84-.01zm12.73.99c-2.55-.46-4.38-2.27-4.98-4.93-.08-.34-.11-.73-.13-1.47-.03-1.17.06-1.9.37-2.81.58-1.74 1.62-2.97 3.14-3.71 1.6-.78 3.78-.83 5.19-.12 1.59.8 2.53 2.39 2.77 4.7.03.31.05.68.04.82l-.02.26-3.81.01-3.81.01.01.45c.03 1.04.26 1.96.67 2.77.19.36.34.56.7.93.82.83 1.64 1.15 2.93 1.15.94 0 1.61-.19 2.31-.64.2-.13.4-.23.44-.23.11 0 .36.32.36.46 0 .23-.74.96-1.46 1.44-.59.4-1.53.76-2.34.9-.54.12-1.81.11-2.38.01zm2.29-.1c1.19-.19 2.37-.77 3.21-1.57.46-.44.62-.65.55-.76-.17-.3-.16-.3-.6-.03-.7.43-1.05.55-1.87.63-.96.1-1.84-.06-2.66-.48-.54-.28-1.19-.92-1.51-1.49-.44-.79-.68-1.7-.75-2.88-.03-.5-.02-.62.03-.66.04-.03 1.76-.05 3.84-.05h3.77v-.15c0-.34-.11-1.25-.21-1.73-.4-1.92-1.46-3.29-2.97-3.84-.6-.22-1.17-.31-1.92-.31-1.77 0-3.22.58-4.34 1.74-.89.93-1.42 1.97-1.75 3.43-.1.44-.11.67-.11 1.6 0 .92.02 1.16.11 1.58.6 2.7 2.38 4.48 4.93 4.93.66.14 1.61.15 2.25.04zm-3.62-8.14c-.04-.06.06-.98.15-1.45.23-1.14.6-1.97 1.1-2.48.27-.27.4-.36.62-.42.15-.05.33-.08.38-.08.24 0 .51.12.72.31.56.51.88 1.62.94 3.25l.03.81-.54.03c-1.06.05-3.37.08-3.4.03zm2.95-.15l.9-.03-.04-.63c-.11-2.24-.66-3.47-1.55-3.47-.97 0-1.74 1.25-2.06 3.32-.04.25-.07.56-.07.67v.21l.97-.02c.52-.01 1.36-.03 1.85-.05zm8.68 8.44c-.92-.1-2.38-.42-2.86-.63l-.24-.1-.03-1.18c-.02-.65-.04-1.51-.05-1.92l-.01-.75.14-.07c.08-.04.24-.07.35-.08l.21-.01.18.44c.69 1.71 1.51 2.63 2.57 2.91.41.11 1.17.11 1.47 0 .84-.3 1.3-.93 1.31-1.8 0-1.03-.56-1.52-2.7-2.36-1.32-.52-1.79-.78-2.34-1.35-.59-.61-.88-1.3-.93-2.26-.06-1.16.3-2.14 1.11-2.98.81-.84 1.87-1.3 3.3-1.43 1.26-.12 3.21.15 4.22.58l.19.08.03 1.05c.02.58.04 1.35.04 1.72l.01.67-.26.1c-.39.15-.42.13-.64-.45-.61-1.63-1.33-2.4-2.44-2.63-.68-.14-1.24.01-1.66.45-.32.34-.45.65-.48 1.16-.03.55.07.85.41 1.23.42.46 1.1.85 2.46 1.42 1.67.7 2.47 1.29 2.9 2.16.28.56.36 1.01.33 1.88-.02.65-.04.78-.19 1.22-.48 1.42-1.57 2.35-3.24 2.79-.57.15-.65.16-1.78.17-.64-.01-1.27-.01-1.38-.03zm2.44-.14c2.19-.33 3.6-1.5 3.97-3.3.18-.87.1-1.83-.21-2.47-.43-.9-1.17-1.44-2.98-2.21-1.35-.57-2.16-1.05-2.49-1.49-.27-.36-.36-.63-.36-1.11.01-.72.28-1.27.8-1.62.44-.29.98-.36 1.62-.21.77.18 1.35.65 1.87 1.53.17.28.51 1.06.68 1.54.03.07.06.08.24.02.11-.03.22-.08.24-.1.02-.02.02-.76 0-1.64l-.04-1.6-.19-.08c-.32-.13-1.14-.36-1.68-.46-.41-.07-.77-.09-1.72-.09-1.14 0-1.24.01-1.71.14-1.37.37-2.39 1.15-2.92 2.22-.28.57-.38 1.01-.38 1.7 0 .98.27 1.7.86 2.33.51.54 1.17.93 2.29 1.35.88.33 1.8.78 2.14 1.07.2.17.36.36.48.58.17.31.18.35.18.84 0 .47-.01.54-.16.86-.39.83-1.17 1.24-2.2 1.15-1.39-.11-2.37-1.03-3.17-2.98-.21-.51-.22-.52-.54-.4l-.15.06.04 1.81c.03 1.61.05 1.82.12 1.88.23.18 1.71.53 2.74.65.81.12 2.03.12 2.63.03zM.07 18.39c-.04-.01-.07-.14-.07-.38 0-.43-.03-.41.8-.56.63-.12.86-.24 1.14-.6.54-.71.66-2.08.66-7.71 0-5.29-.1-6.4-.66-7.22-.25-.36-.67-.56-1.37-.64l-.54-.07L.01.79 0 .37.17.34C.26.32 3.54.32 7.44.32l7.1.01.03.21c.02.11.05 1.27.07 2.58l.03 2.38-.37.11c-.55.17-.55.17-.8-.49-.61-1.61-1.31-2.54-2.26-3.01-.66-.32-.96-.36-2.83-.36h-1.6l-.03.27c-.05.51-.14 3.77-.13 5.3v1.53h.48c.26 0 .78-.02 1.15-.04.56-.03.72-.06.95-.17.57-.26.96-.85 1.2-1.79l.12-.49.42-.01.42-.01v6.18l-.42-.01-.42-.02-.12-.49c-.22-.92-.66-1.58-1.19-1.81-.25-.11-.86-.17-2.03-.21l-.57-.02v1.16c0 1.27.07 2.98.16 3.91.12 1.3.46 2.01 1.05 2.27.11.05.47.13.8.18.33.05.63.11.68.14.13.06.13.74.01.78-.1.03-9.18.03-9.27-.01zm9.25-.4c0-.16-.01-.28-.03-.28-.25 0-1.39-.25-1.57-.34-.65-.33-.96-1.11-1.07-2.78-.08-1.18-.17-4.67-.11-4.72.05-.05 2.22.04 2.48.1.7.17 1.25.86 1.52 1.94l.12.47.31.02.31.02V6.44h-.33c-.31 0-.33.01-.33.12 0 .2-.2.81-.38 1.2-.29.61-.7.98-1.22 1.1-.13.03-.73.08-1.34.1-.86.03-1.12.03-1.15-.02-.06-.09.08-6.86.14-7.18l.03-.12 1.89.02 1.89.02.44.16c1.02.36 1.75 1.11 2.36 2.4.14.29.31.71.39.94.08.23.15.42.15.43.01 0 .18-.04.38-.1l.36-.11-.03-1.68c-.01-.92-.04-2.03-.06-2.47l-.03-.78H.1l.02.32.02.32.46.06c.62.08.84.14 1.09.32.38.27.61.67.75 1.31.23.98.31 3.2.27 7.34-.04 4.38-.1 5.29-.37 6.18-.23.73-.66 1.11-1.36 1.23-.19.03-.47.08-.61.11l-.26.06v.56h9.22v-.29zm16.12.39c-.05-.03-.06-.15-.05-.4l.02-.36.18-.04.47-.09c.5-.09.78-.36.95-.89.13-.43.19-1.81.19-4.59 0-3.39-.07-4.19-.41-4.65-.19-.25-.32-.32-.77-.4-.22-.04-.46-.09-.52-.1-.1-.02-.12-.06-.12-.31s.02-.29.12-.33c.15-.06 5.25-1.08 5.42-1.08h.13l-.02.76c-.03.43-.05 1.03-.06 1.36l-.02.59.18-.33c.59-1.07 1.25-1.73 2.14-2.13.48-.22.81-.29 1.41-.29.71 0 1.42.23 1.42.46 0 .16-1.25 3.46-1.32 3.48-.03.01-.28-.08-.54-.21-.55-.26-1.07-.39-1.57-.39-.63 0-1.32.23-1.6.53-.14.13-.14.14-.17 2.03-.03 1.87.03 4.16.14 5.08.09.78.3 1.17.73 1.35.14.06 1.05.18 1.35.18.02 0 .03.18.03.4l-.02.4-3.81.01c-2.1 0-3.84-.01-3.88-.04zm7.61-.38v-.28l-.4-.03c-.92-.08-1.17-.17-1.41-.52-.35-.5-.43-1.43-.43-5.21V9.02l.13-.14c.16-.17.66-.41 1.02-.48.72-.15 1.65-.02 2.37.33.21.1.39.18.4.17.02-.02 1.21-3.16 1.24-3.29.02-.06-.05-.11-.25-.19-.43-.17-.8-.23-1.28-.2-1.28.07-2.41.92-3.23 2.42-.14.25-.28.45-.31.45-.05 0-.06-.28-.03-1.42l.04-1.42-.12.03c-.07.02-1.1.22-2.29.46-2.55.51-2.9.59-2.97.62-.03.02-.05.11-.05.2 0 .19-.02.18.56.28.8.13 1.08.52 1.2 1.65.15 1.48.09 7.25-.09 8.04-.09.4-.33.79-.57.93-.09.05-.37.13-.62.18l-.46.09-.01.27-.02.27h7.58V18z"></path><path class="st0" d="M9.32 17.99c0-.16-.01-.28-.03-.28-.25 0-1.39-.25-1.57-.34-.65-.33-.96-1.11-1.07-2.78-.08-1.18-.17-4.67-.11-4.72.05-.05 2.22.04 2.48.1.7.17 1.25.86 1.52 1.94l.12.47.31.02.31.02V6.44h-.33c-.31 0-.33.01-.33.12 0 .2-.2.81-.38 1.2-.29.61-.7.98-1.22 1.1-.13.03-.73.08-1.34.1-.86.03-1.12.03-1.15-.02-.06-.09.08-6.86.14-7.18l.03-.12 1.89.02 1.89.02.44.16c1.02.36 1.75 1.11 2.36 2.4.14.29.31.71.39.94.08.23.15.42.15.43.01 0 .18-.04.38-.1l.36-.11-.03-1.68c-.01-.92-.04-2.03-.06-2.47l-.03-.78H.1l.02.32.02.32.46.06c.62.08.84.14 1.09.32.38.27.61.67.75 1.31.23.98.31 3.2.27 7.34-.04 4.38-.1 5.29-.37 6.18-.23.73-.66 1.11-1.36 1.23-.19.03-.47.08-.61.11l-.26.06v.56h9.22v-.29z"></path><path class="st1" d="M20.49 18.49c.91-.21 1.64-.54 2.29-1.02 1.58-1.18 2.45-3 2.53-5.29.08-2.26-.6-4.19-1.92-5.43-1.07-1.01-2.42-1.49-4.16-1.49-1.85 0-3.34.57-4.48 1.73-1.23 1.23-1.88 2.96-1.88 4.98 0 2.1.59 3.79 1.72 4.97a5.13 5.13 0 002.11 1.36c.31.11.54.16 1.36.32.07.01.55.02 1.06.01.7-.04 1.04-.07 1.37-.14zm-3.7-4.13c.3 1.84.9 3.01 1.75 3.39.34.15.96.15 1.32-.02.97-.45 1.49-1.76 1.66-4.16.24-3.35-.31-6.14-1.4-7.12-.49-.44-1.25-.59-1.8-.34-.8.36-1.32 1.41-1.56 3.2-.18 1.28-.16 3.88.03 5.05z"></path><path class="st0" d="M33.05 18v-.28l-.4-.03c-.92-.08-1.17-.17-1.41-.52-.35-.5-.43-1.43-.43-5.21V9.02l.13-.14c.16-.17.66-.41 1.02-.48.72-.15 1.65-.02 2.37.33.21.1.39.18.4.17.02-.02 1.21-3.16 1.24-3.29.02-.06-.05-.11-.25-.19-.43-.17-.8-.23-1.28-.2-1.28.07-2.41.92-3.23 2.42-.14.25-.28.45-.31.45-.05 0-.06-.28-.03-1.42l.04-1.42-.12.03c-.07.02-1.1.22-2.29.46-2.55.51-2.9.59-2.97.62-.03.02-.05.11-.05.2 0 .19-.02.18.56.28.8.13 1.08.52 1.2 1.65.15 1.48.09 7.25-.09 8.04-.09.4-.33.79-.57.93-.09.05-.37.13-.62.18l-.46.09-.01.27-.02.27h7.58V18z"></path><path class="st1" d="M42.8 18.56c1.56-.23 2.71-.77 3.68-1.72 1.4-1.38 2.08-3.32 1.99-5.71-.05-1.23-.25-2.04-.76-3.04-.69-1.35-1.88-2.3-3.22-2.58-1.01-.21-2.31-.05-3.29.42-.25.12-.48.21-.52.21-.07 0-.07-.38-.06-3l.02-3-.21.04c-.11.02-1.27.24-2.57.48-1.3.24-2.42.45-2.48.46-.09.02-.11.06-.1.22.01.18.03.2.22.24.65.14.77.19 1.01.45.3.31.43.7.52 1.52.07.65.09 11.88.02 13.54l-.04.98.53.11c2.01.42 4.01.56 5.26.38zm-2.08-.88c.03.04.14.08.25.09.46.05.99.03 1.23-.04.38-.11.86-.45 1.15-.82.6-.75 1.03-1.91 1.27-3.41.11-.72.13-2.74.03-3.32-.32-1.78-.93-2.87-1.86-3.32-.46-.22-1.12-.25-1.73-.07l-.41.12-.05 1.64c-.06 2.04.03 9.03.12 9.13zM56.98 18.55c1.19-.19 2.37-.77 3.21-1.57.46-.44.62-.65.55-.76-.17-.3-.16-.3-.6-.03-.7.43-1.05.55-1.87.63-.96.1-1.84-.06-2.66-.48-.54-.28-1.19-.92-1.51-1.49-.44-.79-.68-1.7-.75-2.88-.03-.5-.02-.62.03-.66.04-.03 1.76-.05 3.84-.05h3.77v-.15c0-.34-.11-1.25-.21-1.73-.4-1.92-1.46-3.29-2.97-3.84-.6-.22-1.17-.31-1.92-.31-1.77 0-3.22.58-4.34 1.74-.89.93-1.42 1.97-1.75 3.43-.1.44-.11.67-.11 1.6 0 .92.02 1.16.11 1.58.6 2.7 2.38 4.48 4.93 4.93.66.14 1.61.15 2.25.04zm-3.46-9.59c-.1.47-.19 1.39-.15 1.45.03.05 2.34.02 3.41-.04l.54-.03-.03-.81c-.08-1.63-.39-2.73-.95-3.25-.21-.19-.49-.31-.72-.31-.06 0-.23.04-.38.08-.22.07-.35.15-.62.42-.51.52-.88 1.34-1.1 2.49z"></path><path class="st0" d="M67.43 18.56c2.19-.33 3.6-1.5 3.97-3.3.18-.87.1-1.83-.21-2.47-.43-.9-1.17-1.44-2.98-2.21-1.35-.57-2.16-1.05-2.49-1.49-.27-.36-.36-.63-.36-1.11.01-.72.28-1.27.8-1.62.44-.29.98-.36 1.62-.21.77.18 1.35.65 1.87 1.53.17.28.51 1.06.68 1.54.03.07.06.08.24.02.11-.03.22-.08.24-.1.02-.02.02-.76 0-1.64l-.04-1.6-.19-.08c-.32-.13-1.14-.36-1.68-.46-.41-.07-.77-.09-1.72-.09-1.14 0-1.24.01-1.71.14-1.37.37-2.39 1.15-2.92 2.22-.28.57-.38 1.01-.38 1.7 0 .98.27 1.7.86 2.33.51.54 1.17.93 2.29 1.35.88.33 1.8.78 2.14 1.07.2.17.36.36.48.58.17.31.18.35.18.84 0 .47-.01.54-.16.86-.39.83-1.17 1.24-2.2 1.15-1.39-.11-2.37-1.03-3.17-2.98-.21-.51-.22-.52-.54-.4l-.15.06.04 1.81c.03 1.61.05 1.82.12 1.88.23.18 1.71.53 2.74.65.81.12 2.03.12 2.63.03z"></path></svg> 